SplineFontDB: 3.0
FontName: Duployan
FullName: Duployan
FamilyName: Duployan
Weight: Regular
Copyright: Copyright 2018-2019 David Corbett.\nCopyright 2015, 2018 Google Inc. All Rights Reserved.
Version: 1.000
ItalicAngle: 0
UnderlinePosition: -100
UnderlineWidth: 50
Ascent: 800
Descent: 200
InvalidEm: 0
LayerCount: 2
Layer: 0 0 "Back" 1
Layer: 1 0 "Fore" 0
XUID: [1021 866 925171143 11869304]
FSType: 0
OS2Version: 0
OS2_WeightWidthSlopeOnly: 0
OS2_UseTypoMetrics: 1
CreationTime: 1523136075
ModificationTime: 1567874883
PfmFamily: 17
TTFWeight: 400
TTFWidth: 5
LineGap: 90
VLineGap: 0
OS2TypoAscent: 0
OS2TypoAOffset: 1
OS2TypoDescent: 0
OS2TypoDOffset: 1
OS2TypoLinegap: 90
OS2WinAscent: 0
OS2WinAOffset: 1
OS2WinDescent: 0
OS2WinDOffset: 1
HheadAscent: 0
HheadAOffset: 1
HheadDescent: 0
HheadDOffset: 1
OS2Vendor: 'PfEd'
Lookup: 260 0 0 "'mark' absolutely positioned marks" { "'mark' absolutely positioned marks-1"  "'mark' absolutely positioned marks-2"  } ['mark' ('DFLT' <'dflt' > 'dupl' <'dflt' > ) ]
MarkAttachClasses: 1
DEI: 91125

StartChar: zero
Encoding: 48 48 1
Width: 584
Flags: HW
LayerCount: 2
Fore
SplineSet
529 358 m 0
 529 281.333333333 521 215.5 505 160.5 c 128
 489 105.5 463.666666667 63.3333333333 429 34 c 128
 394.333333333 4.66666666667 348.333333333 -10 291 -10 c 0
 210.333333333 -10 150.833333333 22.5 112.5 87.5 c 128
 74.1666666667 152.5 55 242.666666667 55 358 c 0
 55 435.333333333 62.8333333333 501.333333333 78.5 556 c 128
 94.1666666667 610.666666667 119.333333333 652.5 154 681.5 c 128
 188.666666667 710.5 234.333333333 725 291 725 c 0
 371 725 430.666666667 692.833333333 470 628.5 c 128
 509.333333333 564.166666667 529 474 529 358 c 0
143 358 m 0
 143 260 154.166666667 186.666666667 176.5 138 c 128
 198.833333333 89.3333333333 237 65 291 65 c 0
 344.333333333 65 382.5 89.1666666667 405.5 137.5 c 128
 428.5 185.833333333 440 259.333333333 440 358 c 0
 440 455.333333333 428.5 528.333333333 405.5 577 c 128
 382.5 625.666666667 344.333333333 650 291 650 c 0
 237 650 198.833333333 625.666666667 176.5 577 c 128
 154.166666667 528.333333333 143 455.333333333 143 358 c 0
EndSplineSet
EndChar

StartChar: one
Encoding: 49 49 2
Width: 441
Flags: HW
LayerCount: 2
Fore
SplineSet
205 0 m 1
 205 499 l 2
 205 527.666666667 205.333333333 550.666666667 206 568 c 128
 206.666666667 585.333333333 207.666666667 603.333333333 209 622 c 1
 198.333333333 611.333333333 188.666666667 602.333333333 180 595 c 128
 171.333333333 587.666666667 160.333333333 578.333333333 147 567 c 2
 71 505 l 1
 25 564 l 1
 218 714 l 1
 291 714 l 1
 291 0 l 1
 205 0 l 1
EndSplineSet
EndChar

StartChar: two
Encoding: 50 50 3
Width: 555
Flags: HW
LayerCount: 2
Fore
SplineSet
38 0 m 1
 38 73 l 1
 225 262 l 2
 261 298 291.333333333 330 316 358 c 128
 340.666666667 386 359.333333333 413.5 372 440.5 c 128
 384.666666667 467.5 391 497 391 529 c 0
 391 568.333333333 379.333333333 598.166666667 356 618.5 c 128
 332.666666667 638.833333333 302.333333333 649 265 649 c 0
 230.333333333 649 199.833333333 643 173.5 631 c 128
 147.166666667 619 120.333333333 602.333333333 93 581 c 1
 46 640 l 1
 74 663.333333333 106.166666667 683.166666667 142.5 699.5 c 128
 178.833333333 715.833333333 219.666666667 724 265 724 c 0
 331.666666667 724 384.333333333 707.166666667 423 673.5 c 128
 461.666666667 639.833333333 481 593.333333333 481 534 c 0
 481 496.666666667 473.333333333 461.666666667 458 429 c 128
 442.666666667 396.333333333 421.333333333 364.166666667 394 332.5 c 128
 366.666666667 300.833333333 334.666666667 267 298 231 c 2
 149 84 l 1
 149 80 l 1
 510 80 l 1
 510 0 l 1
 38 0 l 1
EndSplineSet
EndChar

StartChar: three
Encoding: 51 51 4
Width: 572
Flags: HW
LayerCount: 2
Fore
SplineSet
493 547 m 0
 493 499 479.666666667 460.833333333 453 432.5 c 128
 426.333333333 404.166666667 390.333333333 385.333333333 345 376 c 1
 345 372 l 1
 402.333333333 365.333333333 445 347.333333333 473 318 c 128
 501 288.666666667 515 250.333333333 515 203 c 0
 515 161.666666667 505.333333333 124.833333333 486 92.5 c 128
 466.666666667 60.1666666667 436.833333333 35 396.5 17 c 128
 356.166666667 -1 304.333333333 -10 241 -10 c 0
 203.666666667 -10 169 -7.16666666667 137 -1.5 c 128
 105 4.16666666667 74.3333333333 14.3333333333 45 29 c 1
 45 111 l 1
 75 96.3333333333 107.333333333 84.8333333333 142 76.5 c 128
 176.666666667 68.1666666667 210 64 242 64 c 0
 306 64 352.166666667 76.5 380.5 101.5 c 128
 408.833333333 126.5 423 161 423 205 c 0
 423 249.666666667 405.5 281.833333333 370.5 301.5 c 128
 335.5 321.166666667 286.333333333 331 223 331 c 2
 154 331 l 1
 154 406 l 1
 224 406 l 2
 282.666666667 406 327.166666667 418.333333333 357.5 443 c 128
 387.833333333 467.666666667 403 500.333333333 403 541 c 0
 403 575.666666667 391.333333333 602.5 368 621.5 c 128
 344.666666667 640.5 313 650 273 650 c 0
 234.333333333 650 201.333333333 644.333333333 174 633 c 128
 146.666666667 621.666666667 119.666666667 607.333333333 93 590 c 1
 49 650 l 1
 74.3333333333 670 105.833333333 687.333333333 143.5 702 c 128
 181.166666667 716.666666667 224 724 272 724 c 0
 346.666666667 724 402.166666667 707.333333333 438.5 674 c 128
 474.833333333 640.666666667 493 598.333333333 493 547 c 0
EndSplineSet
EndChar

StartChar: four
Encoding: 52 52 5
Width: 572
Flags: HW
LayerCount: 2
Fore
SplineSet
363 0 m 1
 363 162 l 1
 21 162 l 1
 21 237 l 1
 357 718 l 1
 448 718 l 1
 448 241 l 1
 552 241 l 1
 552 162 l 1
 448 162 l 1
 448 0 l 1
 363 0 l 1
363 241 m 1
 363 466 l 2
 363 500.666666667 363.333333333 530.833333333 364 556.5 c 128
 364.666666667 582.166666667 365.666666667 603.333333333 367 620 c 1
 363 620 l 1
 356.333333333 607.333333333 347.666666667 592.666666667 337 576 c 128
 326.333333333 559.333333333 317.333333333 546 310 536 c 2
 107 241 l 1
 363 241 l 1
EndSplineSet
EndChar

StartChar: five
Encoding: 53 53 6
Width: 572
Flags: HW
LayerCount: 2
Fore
SplineSet
275 438 m 0
 348.333333333 438 406.666666667 419.666666667 450 383 c 128
 493.333333333 346.333333333 515 294.666666667 515 228 c 0
 515 154 491.5 95.8333333333 444.5 53.5 c 128
 397.5 11.1666666667 332 -10 248 -10 c 0
 211.333333333 -10 176.833333333 -6.66666666667 144.5 0 c 128
 112.166666667 6.66666666667 85 16.3333333333 63 29 c 1
 63 112 l 1
 87 97.3333333333 116.166666667 85.8333333333 150.5 77.5 c 128
 184.833333333 69.1666666667 217.666666667 65 249 65 c 0
 301.666666667 65 344.166666667 77.5 376.5 102.5 c 128
 408.833333333 127.5 425 166.333333333 425 219 c 0
 425 265.666666667 410.666666667 301.5 382 326.5 c 128
 353.333333333 351.5 308 364 246 364 c 0
 227.333333333 364 206 362.333333333 182 359 c 128
 158 355.666666667 138.666666667 352.333333333 124 349 c 1
 80 377 l 1
 107 714 l 1
 465 714 l 1
 465 634 l 1
 182 634 l 1
 165 427 l 1
 176.333333333 429 191.666666667 431.333333333 211 434 c 128
 230.333333333 436.666666667 251.666666667 438 275 438 c 0
EndSplineSet
EndChar

StartChar: six
Encoding: 54 54 7
Width: 572
Flags: HW
LayerCount: 2
Fore
SplineSet
55 305 m 0
 55 356.333333333 59.5 406.833333333 68.5 456.5 c 128
 77.5 506.166666667 93.8333333333 551.166666667 117.5 591.5 c 128
 141.166666667 631.833333333 174.333333333 664 217 688 c 128
 259.666666667 712 314.666666667 724 382 724 c 0
 396 724 411.5 723.333333333 428.5 722 c 128
 445.5 720.666666667 459.333333333 718.333333333 470 715 c 1
 470 640 l 1
 458 644 444.5 647 429.5 649 c 128
 414.5 651 399.333333333 652 384 652 c 0
 338 652 299.666666667 644.333333333 269 629 c 128
 238.333333333 613.666666667 214.166666667 592.666666667 196.5 566 c 128
 178.833333333 539.333333333 166 508.666666667 158 474 c 128
 150 439.333333333 145 402.333333333 143 363 c 1
 149 363 l 1
 164.333333333 386.333333333 185.666666667 406.166666667 213 422.5 c 128
 240.333333333 438.833333333 275.333333333 447 318 447 c 0
 380 447 430 428.166666667 468 390.5 c 128
 506 352.833333333 525 299.333333333 525 230 c 0
 525 155.333333333 504.5 96.6666666667 463.5 54 c 128
 422.5 11.3333333333 367.333333333 -10 298 -10 c 0
 252.666666667 -10 211.666666667 1.33333333333 175 24 c 128
 138.333333333 46.6666666667 109.166666667 81.3333333333 87.5 128 c 128
 65.8333333333 174.666666667 55 233.666666667 55 305 c 0
297 64 m 0
 339 64 373 77.5 399 104.5 c 128
 425 131.5 438 173.333333333 438 230 c 0
 438 275.333333333 426.5 311.333333333 403.5 338 c 128
 380.5 364.666666667 346 378 300 378 c 0
 268.666666667 378 241.333333333 371.5 218 358.5 c 128
 194.666666667 345.5 176.5 329 163.5 309 c 128
 150.5 289 144 268.333333333 144 247 c 0
 144 218.333333333 149.666666667 189.833333333 161 161.5 c 128
 172.333333333 133.166666667 189.333333333 109.833333333 212 91.5 c 128
 234.666666667 73.1666666667 263 64 297 64 c 0
EndSplineSet
EndChar

StartChar: seven
Encoding: 55 55 8
Width: 511
Flags: HW
LayerCount: 2
Fore
SplineSet
100 0 m 1
 393 634 l 1
 8 634 l 1
 8 714 l 1
 487 714 l 1
 487 646 l 1
 197 0 l 1
 100 0 l 1
EndSplineSet
EndChar

StartChar: eight
Encoding: 56 56 9
Width: 589
Flags: HW
LayerCount: 2
Fore
SplineSet
297 -10 m 0
 220.333333333 -10 161.333333333 6.83333333333 120 40.5 c 128
 78.6666666667 74.1666666667 58 121.333333333 58 182 c 0
 58 214.666666667 64.8333333333 243 78.5 267 c 128
 92.1666666667 291 110.333333333 311.666666667 133 329 c 128
 155.666666667 346.333333333 180 361 206 373 c 1
 171.333333333 393 141.833333333 417.166666667 117.5 445.5 c 128
 93.1666666667 473.833333333 81 510 81 554 c 0
 81 590.666666667 90.3333333333 621.5 109 646.5 c 128
 127.666666667 671.5 153 690.666666667 185 704 c 128
 217 717.333333333 253.333333333 724 294 724 c 0
 356.666666667 724 408 709.333333333 448 680 c 128
 488 650.666666667 508 608.333333333 508 553 c 0
 508 524.333333333 501.833333333 499.333333333 489.5 478 c 128
 477.166666667 456.666666667 460.666666667 437.833333333 440 421.5 c 128
 419.333333333 405.166666667 396.666666667 390.666666667 372 378 c 1
 401.333333333 364 428 348.166666667 452 330.5 c 128
 476 312.833333333 495.166666667 292.333333333 509.5 269 c 128
 523.833333333 245.666666667 531 217.666666667 531 185 c 0
 531 125 509.833333333 77.5 467.5 42.5 c 128
 425.166666667 7.5 368.333333333 -10 297 -10 c 0
298 412 m 1
 332.666666667 426.666666667 361.833333333 444.333333333 385.5 465 c 128
 409.166666667 485.666666667 421 514 421 550 c 0
 421 583.333333333 409.333333333 608.833333333 386 626.5 c 128
 362.666666667 644.166666667 331.666666667 653 293 653 c 0
 256.333333333 653 226.166666667 644.166666667 202.5 626.5 c 128
 178.833333333 608.833333333 167 583.333333333 167 550 c 0
 167 525.333333333 172.833333333 504.666666667 184.5 488 c 128
 196.166666667 471.333333333 212 457.166666667 232 445.5 c 128
 252 433.833333333 274 422.666666667 298 412 c 1
295 60 m 0
 343.666666667 60 380.833333333 71.5 406.5 94.5 c 128
 432.166666667 117.5 445 147.333333333 445 184 c 0
 445 218.666666667 431.333333333 247.5 404 270.5 c 128
 376.666666667 293.5 340.333333333 313.666666667 295 331 c 2
 279 337 l 1
 235 318.333333333 201.5 296.833333333 178.5 272.5 c 128
 155.5 248.166666667 144 217.666666667 144 181 c 0
 144 146.333333333 156.333333333 117.5 181 94.5 c 128
 205.666666667 71.5 243.666666667 60 295 60 c 0
EndSplineSet
EndChar

StartChar: nine
Encoding: 57 57 10
Width: 572
Flags: HW
LayerCount: 2
Fore
SplineSet
520 409 m 0
 520 357.666666667 515.5 307.166666667 506.5 257.5 c 128
 497.5 207.833333333 481.166666667 162.833333333 457.5 122.5 c 128
 433.833333333 82.1666666667 400.5 50 357.5 26 c 128
 314.5 2 259.333333333 -10 192 -10 c 0
 178.666666667 -10 163.166666667 -9.16666666667 145.5 -7.5 c 128
 127.833333333 -5.83333333333 113.333333333 -3.33333333333 102 0 c 1
 102 75 l 1
 128 66.3333333333 157.333333333 62 190 62 c 0
 236.666666667 62 275.166666667 69.6666666667 305.5 85 c 128
 335.833333333 100.333333333 360 121.166666667 378 147.5 c 128
 396 173.833333333 409 204.5 417 239.5 c 128
 425 274.5 429.666666667 311.333333333 431 350 c 1
 425 350 l 1
 410.333333333 327.333333333 389.166666667 307.833333333 361.5 291.5 c 128
 333.833333333 275.166666667 298.333333333 267 255 267 c 0
 193.666666667 267 144.166666667 285.833333333 106.5 323.5 c 128
 68.8333333333 361.166666667 50 414.333333333 50 483 c 0
 50 533 59.5 576 78.5 612 c 128
 97.5 648 124 675.666666667 158 695 c 128
 192 714.333333333 232 724 278 724 c 0
 323.333333333 724 364.333333333 712.5 401 689.5 c 128
 437.666666667 666.5 466.666666667 631.833333333 488 585.5 c 128
 509.333333333 539.166666667 520 480.333333333 520 409 c 0
278 650 m 0
 236.666666667 650 202.833333333 636.333333333 176.5 609 c 128
 150.166666667 581.666666667 137 540 137 484 c 0
 137 438.666666667 148.166666667 402.833333333 170.5 376.5 c 128
 192.833333333 350.166666667 227.333333333 337 274 337 c 0
 306 337 333.666666667 343.333333333 357 356 c 128
 380.333333333 368.666666667 398.5 385 411.5 405 c 128
 424.5 425 431 445.666666667 431 467 c 0
 431 495.666666667 425.333333333 524 414 552 c 128
 402.666666667 580 385.666666667 603.333333333 363 622 c 128
 340.333333333 640.666666667 312 650 278 650 c 0
EndSplineSet
EndChar

StartChar: equal
Encoding: 61 61 11
Width: 572
Flags: HW
LayerCount: 2
Fore
SplineSet
56 416 m 1
 56 487 l 1
 514 487 l 1
 514 416 l 1
 56 416 l 1
56 217 m 1
 56 288 l 1
 514 288 l 1
 514 217 l 1
 56 217 l 1
EndSplineSet
EndChar

StartChar: period
Encoding: 46 46 12
Width: 268
Flags: HW
LayerCount: 2
Fore
SplineSet
72 54 m 0
 72 78.6666666667 78 96 90 106 c 128
 102 116 116.333333333 121 133 121 c 0
 150.333333333 121 165.166666667 116 177.5 106 c 128
 189.833333333 96 196 78.6666666667 196 54 c 0
 196 30 189.833333333 12.6666666667 177.5 2 c 128
 165.166666667 -8.66666666667 150.333333333 -14 133 -14 c 0
 116.333333333 -14 102 -8.66666666667 90 2 c 128
 78 12.6666666667 72 30 72 54 c 0
EndSplineSet
EndChar

StartChar: plus
Encoding: 43 43 13
Width: 572
Flags: HW
LayerCount: 2
Fore
SplineSet
321 388 m 1
 520 388 l 1
 520 317 l 1
 321 317 l 1
 321 111 l 1
 249 111 l 1
 249 317 l 1
 50 317 l 1
 50 388 l 1
 249 388 l 1
 249 595 l 1
 321 595 l 1
 321 388 l 1
EndSplineSet
EndChar

StartChar: less
Encoding: 60 60 14
Width: 572
Flags: HW
LayerCount: 2
Fore
SplineSet
521 116 m 1
 50 323 l 1
 50 373 l 1
 521 608 l 1
 521 530 l 1
 144 352 l 1
 521 194 l 1
 521 116 l 1
EndSplineSet
EndChar

StartChar: greater
Encoding: 62 62 15
Width: 572
Flags: HW
LayerCount: 2
Fore
SplineSet
50 194 m 1
 427 351 l 1
 50 530 l 1
 50 608 l 1
 521 373 l 1
 521 323 l 1
 50 116 l 1
 50 194 l 1
EndSplineSet
EndChar

StartChar: question
Encoding: 63 63 16
Width: 434
Flags: HW
LayerCount: 2
Fore
SplineSet
140 201 m 1
 140 228 l 2
 140 253.333333333 142.5 275.166666667 147.5 293.5 c 128
 152.5 311.833333333 161.166666667 329.333333333 173.5 346 c 128
 185.833333333 362.666666667 202.666666667 380 224 398 c 0
 250 420 270.166666667 438.333333333 284.5 453 c 128
 298.833333333 467.666666667 309 482 315 496 c 128
 321 510 324 527 324 547 c 0
 324 579 313.666666667 603.666666667 293 621 c 128
 272.333333333 638.333333333 242.333333333 647 203 647 c 0
 170.333333333 647 141.333333333 642.833333333 116 634.5 c 128
 90.6666666667 626.166666667 66.3333333333 616.333333333 43 605 c 1
 12 675 l 1
 38.6666666667 689 68.1666666667 700.666666667 100.5 710 c 128
 132.833333333 719.333333333 169 724 209 724 c 0
 272.333333333 724 321.333333333 708.333333333 356 677 c 128
 390.666666667 645.666666667 408 603 408 549 c 0
 408 519 403.166666667 493.5 393.5 472.5 c 128
 383.833333333 451.5 370.166666667 432.166666667 352.5 414.5 c 128
 334.833333333 396.833333333 314 378 290 358 c 0
 268 339.333333333 251.166666667 323 239.5 309 c 128
 227.833333333 295 220 281.166666667 216 267.5 c 128
 212 253.833333333 210 237.333333333 210 218 c 2
 210 201 l 1
 140 201 l 1
117 54 m 0
 117 78.6666666667 122.833333333 96 134.5 106 c 128
 146.166666667 116 161 121 179 121 c 0
 195.666666667 121 210 116 222 106 c 128
 234 96 240 78.6666666667 240 54 c 0
 240 30 234 12.6666666667 222 2 c 128
 210 -8.66666666667 195.666666667 -14 179 -14 c 0
 161 -14 146.166666667 -8.66666666667 134.5 2 c 128
 122.833333333 12.6666666667 117 30 117 54 c 0
EndSplineSet
EndChar

StartChar: divide
Encoding: 247 247 17
Width: 572
Flags: HW
LayerCount: 2
Fore
SplineSet
285 462 m 256
 269.666666667 462 256.5 466.833333333 245.5 476.5 c 128
 234.5 486.166666667 229 501.666666667 229 523 c 0
 229 545.666666667 234.5 561.333333333 245.5 570 c 128
 256.5 578.666666667 269.666666667 583 285 583 c 256
 300.333333333 583 313.333333333 578.666666667 324 570 c 128
 334.666666667 561.333333333 340 545.666666667 340 523 c 0
 340 501.666666667 334.666666667 486.166666667 324 476.5 c 128
 313.333333333 466.833333333 300.333333333 462 285 462 c 256
50 317 m 1
 50 388 l 1
 521 388 l 1
 521 317 l 1
 50 317 l 1
285 121 m 256
 269.666666667 121 256.5 125.833333333 245.5 135.5 c 128
 234.5 145.166666667 229 160.666666667 229 182 c 0
 229 204.666666667 234.5 220.333333333 245.5 229 c 128
 256.5 237.666666667 269.666666667 242 285 242 c 256
 300.333333333 242 313.333333333 237.666666667 324 229 c 128
 334.666666667 220.333333333 340 204.666666667 340 182 c 0
 340 160.666666667 334.666666667 145.166666667 324 135.5 c 128
 313.333333333 125.833333333 300.333333333 121 285 121 c 256
EndSplineSet
EndChar

StartChar: gravecomb
Encoding: 768 768 18
Width: 0
Flags: HW
AnchorPoint: "above" -363 536 mark 0
LayerCount: 2
Fore
SplineSet
-388 766 m 1
 -377 744 -377 744 -360.5 716.5 c 128
 -344 689 -344 689 -325.5 663 c 128
 -307 637 -307 637 -292 618 c 1
 -292 606 l 1
 -351 606 l 1
 -374 624 -374 624 -403 652.5 c 128
 -432 681 -432 681 -456.5 709.5 c 128
 -481 738 -481 738 -493 756 c 1
 -493 766 l 1
 -388 766 l 1
EndSplineSet
EndChar

StartChar: acutecomb
Encoding: 769 769 19
Width: 0
Flags: HW
AnchorPoint: "above" -272 536 mark 0
LayerCount: 2
Fore
SplineSet
-124 766 m 1
 -124 756 l 1
 -136 738 -136 738 -161 709.5 c 128
 -186 681 -186 681 -214.5 652.5 c 128
 -243 624 -243 624 -267 606 c 1
 -325 606 l 1
 -325 618 l 1
 -310 637 -310 637 -292.5 663 c 128
 -275 689 -275 689 -258 716.5 c 128
 -241 744 -241 744 -230 766 c 1
 -124 766 l 1
EndSplineSet
EndChar

StartChar: uni0324
Encoding: 804 804 20
Width: 0
Flags: HW
AnchorPoint: "below" -1 0 mark 0
LayerCount: 2
Fore
SplineSet
-141 -125 m 0
 -141 -107.666992188 -136.333007812 -95.1669921875 -127 -87.5 c 128
 -117.666992188 -79.8330078125 -106.666992188 -76 -94 -76 c 256
 -81.3330078125 -76 -70.3330078125 -79.8330078125 -61 -87.5 c 128
 -51.6669921875 -95.1669921875 -47 -107.666992188 -47 -125 c 0
 -47 -141.666992188 -51.6669921875 -154.166992188 -61 -162.5 c 128
 -70.3330078125 -170.833007812 -81.3330078125 -175 -94 -175 c 256
 -106.666992188 -175 -117.666992188 -170.833007812 -127 -162.5 c 128
 -136.333007812 -154.166992188 -141 -141.666992188 -141 -125 c 0
47 -125 m 0
 47 -107.666992188 51.5 -95.1669921875 60.5 -87.5 c 128
 69.5 -79.8330078125 80.3330078125 -76 93 -76 c 256
 105.666992188 -76 116.666992188 -79.8330078125 126 -87.5 c 128
 135.333007812 -95.1669921875 140 -107.666992188 140 -125 c 0
 140 -141.666992188 135.333007812 -154.166992188 126 -162.5 c 128
 116.666992188 -170.833007812 105.666992188 -175 93 -175 c 256
 80.3330078125 -175 69.5 -170.833007812 60.5 -162.5 c 128
 51.5 -154.166992188 47 -141.666992188 47 -125 c 0
EndSplineSet
EndChar

StartChar: uni0317
Encoding: 791 791 21
Width: 0
Flags: HW
AnchorPoint: "below" 1 0 mark 0
LayerCount: 2
Fore
SplineSet
101 -44 m 1
 101 -54 l 1
 89 -72 89 -72 64 -100.5 c 128
 39 -129 39 -129 10.5 -157.5 c 128
 -18 -186 -18 -186 -42 -204 c 1
 -100 -204 l 1
 -100 -192 l 1
 -85 -173 -85 -173 -67.5 -147 c 128
 -50 -121 -50 -121 -33 -93.5 c 128
 -16 -66 -16 -66 -5 -44 c 1
 101 -44 l 1
EndSplineSet
EndChar

StartChar: uni0316
Encoding: 790 790 22
Width: 0
Flags: HW
AnchorPoint: "below" 1 0 mark 0
LayerCount: 2
Fore
SplineSet
5 -44 m 1
 16 -66 16 -66 32.5 -93.5 c 128
 49 -121 49 -121 67.5 -147 c 128
 86 -173 86 -173 101 -192 c 1
 101 -204 l 1
 42 -204 l 1
 19 -186 19 -186 -10 -157.5 c 128
 -39 -129 -39 -129 -63.5 -100.5 c 128
 -88 -72 -88 -72 -100 -54 c 1
 -100 -44 l 1
 5 -44 l 1
EndSplineSet
EndChar

StartChar: uni0308
Encoding: 776 776 23
Width: 0
Flags: HW
AnchorPoint: "above" -1 536 mark 0
LayerCount: 2
Fore
SplineSet
-141 681 m 0
 -141 698.333007812 -136.333007812 710.833007812 -127 718.5 c 128
 -117.666992188 726.166992188 -106.666992188 730 -94 730 c 256
 -81.3330078125 730 -70.3330078125 726.166992188 -61 718.5 c 128
 -51.6669921875 710.833007812 -47 698.333007812 -47 681 c 0
 -47 664.333007812 -51.6669921875 651.833007812 -61 643.5 c 128
 -70.3330078125 635.166992188 -81.3330078125 631 -94 631 c 256
 -106.666992188 631 -117.666992188 635.166992188 -127 643.5 c 128
 -136.333007812 651.833007812 -141 664.333007812 -141 681 c 0
47 681 m 0
 47 698.333007812 51.5 710.833007812 60.5 718.5 c 128
 69.5 726.166992188 80.3330078125 730 93 730 c 256
 105.666992188 730 116.666992188 726.166992188 126 718.5 c 128
 135.333007812 710.833007812 140 698.333007812 140 681 c 0
 140 664.333007812 135.333007812 651.833007812 126 643.5 c 128
 116.666992188 635.166992188 105.666992188 631 93 631 c 256
 80.3330078125 631 69.5 635.166992188 60.5 643.5 c 128
 51.5 651.833007812 47 664.333007812 47 681 c 0
EndSplineSet
EndChar

StartChar: uni25CC
Encoding: 9676 9676 24
Width: 594
Flags: HW
AnchorPoint: "below" 297 0 basechar 0
AnchorPoint: "above" 297 587 basechar 0
LayerCount: 2
Fore
SplineSet
297 540 m 0
 311 540 323 528 323 514 c 0
 323 500 311 488 297 488 c 0
 283 488 271 500 271 514 c 0
 271 528 283 540 297 540 c 0
213 522 m 0
 227 522 239 510 239 496 c 0
 239 482 227 470 213 470 c 0
 199 470 187 482 187 496 c 0
 187 510 199 522 213 522 c 0
381 522 m 0
 395 522 407 510 407 496 c 0
 407 482 395 470 381 470 c 0
 367 470 355 482 355 496 c 0
 355 510 367 522 381 522 c 0
113 449 m 0
 113 463 125 475 139 475 c 0
 153 475 165 463 165 449 c 0
 165 435 153 423 139 423 c 0
 125 423 113 435 113 449 c 0
429 449 m 0
 429 463 441 475 455 475 c 0
 469 475 481 463 481 449 c 0
 481 435 469 423 455 423 c 0
 441 423 429 435 429 449 c 0
66 375 m 0
 66 389 78 401 92 401 c 0
 106 401 118 389 118 375 c 0
 118 361 106 349 92 349 c 0
 78 349 66 361 66 375 c 0
476 375 m 0
 476 389 488 401 502 401 c 0
 516 401 528 389 528 375 c 0
 528 361 516 349 502 349 c 0
 488 349 476 361 476 375 c 0
48 291 m 0
 48 305 60 317 74 317 c 0
 88 317 100 305 100 291 c 0
 100 277 88 265 74 265 c 0
 60 265 48 277 48 291 c 0
494 291 m 0
 494 305 506 317 520 317 c 0
 534 317 546 305 546 291 c 0
 546 277 534 265 520 265 c 0
 506 265 494 277 494 291 c 0
66 207 m 0
 66 221 78 233 92 233 c 0
 106 233 118 221 118 207 c 0
 118 193 106 181 92 181 c 0
 78 181 66 193 66 207 c 0
476 207 m 0
 476 221 488 233 502 233 c 0
 516 233 528 221 528 207 c 0
 528 193 516 181 502 181 c 0
 488 181 476 193 476 207 c 0
113 133 m 0
 113 147 125 159 139 159 c 0
 153 159 165 147 165 133 c 0
 165 119 153 107 139 107 c 0
 125 107 113 119 113 133 c 0
429 133 m 0
 429 147 441 159 455 159 c 0
 469 159 481 147 481 133 c 0
 481 119 469 107 455 107 c 0
 441 107 429 119 429 133 c 0
213 112 m 0
 227 112 239 100 239 86 c 0
 239 72 227 60 213 60 c 0
 199 60 187 72 187 86 c 0
 187 100 199 112 213 112 c 0
381 112 m 0
 395 112 407 100 407 86 c 0
 407 72 395 60 381 60 c 0
 367 60 355 72 355 86 c 0
 355 100 367 112 381 112 c 0
297 94 m 0
 311 94 323 82 323 68 c 0
 323 54 311 42 297 42 c 0
 283 42 271 54 271 68 c 0
 271 82 283 94 297 94 c 0
EndSplineSet
EndChar

StartChar: .notdef
Encoding: 1114112 -1 25
Width: 600
Flags: W
LayerCount: 2
Fore
SplineSet
94 0 m 1
 94 714 l 1
 505 714 l 1
 505 0 l 1
 94 0 l 1
145 51 m 1
 454 51 l 1
 454 663 l 1
 145 663 l 1
 145 51 l 1
EndSplineSet
EndChar

StartChar: exclam
Encoding: 33 33 26
Width: 269
Flags: HW
LayerCount: 2
Fore
SplineSet
163 201 m 1
 106 201 l 1
 81 714 l 1
 188 714 l 1
 163 201 l 1
72 54 m 0
 72 78.6666666667 78 96 90 106 c 128
 102 116 116.666666667 121 134 121 c 0
 150.666666667 121 165.166666667 116 177.5 106 c 128
 189.833333333 96 196 78.6666666667 196 54 c 0
 196 30 189.833333333 12.6666666667 177.5 2 c 128
 165.166666667 -8.66666666667 150.666666667 -14 134 -14 c 0
 116.666666667 -14 102 -8.66666666667 90 2 c 128
 78 12.6666666667 72 30 72 54 c 0
EndSplineSet
EndChar

StartChar: dollar
Encoding: 36 36 27
Width: 572
Flags: HW
LayerCount: 2
Fore
SplineSet
253 -58 m 1
 253 49 l 1
 216.333333333 49.6666666667 180.666666667 52.8333333333 146 58.5 c 128
 111.333333333 64.1666666667 83.3333333333 72 62 82 c 1
 62 167 l 1
 84.6666666667 156.333333333 113.666666667 147 149 139 c 128
 184.333333333 131 219 126.666666667 253 126 c 1
 253 328 l 1
 187 346 138.666666667 368.666666667 108 396 c 128
 77.3333333333 423.333333333 62 460.666666667 62 508 c 0
 62 557.333333333 79.1666666667 596 113.5 624 c 128
 147.833333333 652 194.333333333 667.666666667 253 671 c 1
 253 759 l 1
 317 759 l 1
 317 672 l 1
 352.333333333 671.333333333 384.5 667.5 413.5 660.5 c 128
 442.5 653.5 469 645 493 635 c 1
 466 561 l 1
 444.666666667 569.666666667 421.166666667 577.166666667 395.5 583.5 c 128
 369.833333333 589.833333333 343.666666667 594 317 596 c 1
 317 395 l 1
 361 382.333333333 397.666666667 368.833333333 427 354.5 c 128
 456.333333333 340.166666667 478.5 322.5 493.5 301.5 c 128
 508.5 280.5 516 253.333333333 516 220 c 0
 516 173.333333333 498.666666667 135.5 464 106.5 c 128
 429.333333333 77.5 380.333333333 59.6666666667 317 53 c 1
 317 -58 l 1
 253 -58 l 1
253 417 m 1
 253 594 l 1
 217 591.333333333 190.5 583 173.5 569 c 128
 156.5 555 148 537 148 515 c 0
 148 488.333333333 155.5 467.833333333 170.5 453.5 c 128
 185.5 439.166666667 213 427 253 417 c 1
317 131 m 1
 356.333333333 135 385 144.166666667 403 158.5 c 128
 421 172.833333333 430 191.333333333 430 214 c 0
 430 239.333333333 422 258.5 406 271.5 c 128
 390 284.5 360.333333333 296.333333333 317 307 c 1
 317 131 l 1
EndSplineSet
EndChar

StartChar: parenleft
Encoding: 40 40 28
Width: 300
Flags: HW
LayerCount: 2
Fore
SplineSet
40 274 m 0
 40 355.333333333 51.8333333333 433.833333333 75.5 509.5 c 128
 99.1666666667 585.166666667 136.333333333 653.333333333 187 714 c 1
 270 714 l 1
 223.333333333 651.333333333 188.166666667 582.333333333 164.5 507 c 128
 140.833333333 431.666666667 129 354.333333333 129 275 c 0
 129 197.666666667 140.833333333 121.833333333 164.5 47.5 c 128
 188.166666667 -26.8333333333 223 -95.3333333333 269 -158 c 1
 187 -158 l 1
 136.333333333 -99.3333333333 99.1666666667 -32.8333333333 75.5 41.5 c 128
 51.8333333333 115.833333333 40 193.333333333 40 274 c 0
EndSplineSet
EndChar

StartChar: parenright
Encoding: 41 41 29
Width: 300
Flags: HW
LayerCount: 2
Fore
SplineSet
260 274 m 0
 260 193.333333333 248.166666667 115.833333333 224.5 41.5 c 128
 200.833333333 -32.8333333333 163.666666667 -99.3333333333 113 -158 c 1
 31 -158 l 1
 77 -95.3333333333 111.833333333 -26.8333333333 135.5 47.5 c 128
 159.166666667 121.833333333 171 197.666666667 171 275 c 0
 171 354.333333333 159.166666667 431.666666667 135.5 507 c 128
 111.833333333 582.333333333 76.6666666667 651.333333333 30 714 c 1
 113 714 l 1
 163.666666667 653.333333333 200.833333333 585.166666667 224.5 509.5 c 128
 248.166666667 433.833333333 260 355.333333333 260 274 c 0
EndSplineSet
EndChar

StartChar: asterisk
Encoding: 42 42 30
Width: 551
Flags: HW
LayerCount: 2
Fore
SplineSet
322 760 m 1
 302 568 l 1
 494 622 l 1
 508 530 l 1
 324 515 l 1
 443 357 l 1
 357 310 l 1
 272 485 l 1
 195 310 l 1
 106 357 l 1
 223 515 l 1
 41 530 l 1
 55 622 l 1
 245 568 l 1
 224 760 l 1
 322 760 l 1
EndSplineSet
EndChar

StartChar: comma
Encoding: 44 44 31
Width: 268
Flags: HW
LayerCount: 2
Fore
SplineSet
185 116 m 1
 192 105 l 1
 183.333333333 69.6666666667 170.833333333 30.8333333333 154.5 -11.5 c 128
 138.166666667 -53.8333333333 122 -93 106 -129 c 1
 41 -129 l 1
 50.3333333333 -91 59.8333333333 -49.3333333333 69.5 -4 c 128
 79.1666666667 41.3333333333 86.3333333333 81.3333333333 91 116 c 1
 185 116 l 1
EndSplineSet
EndChar

StartChar: slash
Encoding: 47 47 32
Width: 372
Flags: HW
LayerCount: 2
Fore
SplineSet
362 714 m 1
 96 0 l 1
 10 0 l 1
 276 714 l 1
 362 714 l 1
EndSplineSet
EndChar

StartChar: colon
Encoding: 58 58 33
Width: 268
Flags: HW
LayerCount: 2
Fore
SplineSet
72 482 m 0
 72 507.333333333 78 525 90 535 c 128
 102 545 116.333333333 550 133 550 c 0
 150.333333333 550 165.166666667 545 177.5 535 c 128
 189.833333333 525 196 507.333333333 196 482 c 0
 196 458 189.833333333 440.666666667 177.5 430 c 128
 165.166666667 419.333333333 150.333333333 414 133 414 c 0
 116.333333333 414 102 419.333333333 90 430 c 128
 78 440.666666667 72 458 72 482 c 0
72 54 m 0
 72 78.6666666667 78 96 90 106 c 128
 102 116 116.333333333 121 133 121 c 0
 150.333333333 121 165.166666667 116 177.5 106 c 128
 189.833333333 96 196 78.6666666667 196 54 c 0
 196 30 189.833333333 12.6666666667 177.5 2 c 128
 165.166666667 -8.66666666667 150.333333333 -14 133 -14 c 0
 116.333333333 -14 102 -8.66666666667 90 2 c 128
 78 12.6666666667 72 30 72 54 c 0
EndSplineSet
EndChar

StartChar: semicolon
Encoding: 59 59 34
Width: 268
Flags: HW
LayerCount: 2
Fore
SplineSet
70 482 m 0
 70 507.333333333 76 525 88 535 c 128
 100 545 114.333333333 550 131 550 c 0
 148.333333333 550 163.166666667 545 175.5 535 c 128
 187.833333333 525 194 507.333333333 194 482 c 0
 194 458 187.833333333 440.666666667 175.5 430 c 128
 163.166666667 419.333333333 148.333333333 414 131 414 c 0
 114.333333333 414 100 419.333333333 88 430 c 128
 76 440.666666667 70 458 70 482 c 0
176 116 m 1
 183 105 l 1
 174.333333333 70.3333333333 161.833333333 31.5 145.5 -11.5 c 128
 129.166666667 -54.5 113 -93.6666666667 97 -129 c 1
 31 -129 l 1
 37.6666666667 -103.666666667 44.1666666667 -76.5 50.5 -47.5 c 128
 56.8333333333 -18.5 62.8333333333 10.1666666667 68.5 38.5 c 128
 74.1666666667 66.8333333333 78.6666666667 92.6666666667 82 116 c 1
 176 116 l 1
EndSplineSet
EndChar

StartChar: guillemotleft
Encoding: 171 171 35
Width: 509
Flags: HW
LayerCount: 2
Fore
SplineSet
40 270 m 1
 208 471 l 1
 271 435 l 1
 131 264 l 1
 271 93 l 1
 208 56 l 1
 40 257 l 1
 40 270 l 1
238 270 m 1
 408 471 l 1
 470 435 l 1
 330 264 l 1
 470 93 l 1
 408 56 l 1
 238 257 l 1
 238 270 l 1
EndSplineSet
EndChar

StartChar: guillemotright
Encoding: 187 187 36
Width: 509
Flags: HW
LayerCount: 2
Fore
SplineSet
469 257 m 1
 299 56 l 1
 237 93 l 1
 377 264 l 1
 237 435 l 1
 299 471 l 1
 469 270 l 1
 469 257 l 1
270 257 m 1
 101 56 l 1
 39 93 l 1
 179 264 l 1
 39 435 l 1
 101 471 l 1
 270 270 l 1
 270 257 l 1
EndSplineSet
EndChar

StartChar: uni0302
Encoding: 770 770 37
Width: 0
Flags: HW
AnchorPoint: "above" 2 536 mark 0
LayerCount: 2
Fore
SplineSet
46 766 m 1
 58 744 58 744 80.5 716.5 c 128
 103 689 103 689 127.5 662.5 c 128
 152 636 152 636 171 617 c 1
 171 606 l 1
 109 606 l 1
 83 622 83 622 55 645.5 c 128
 27 669 27 669 0 696 c 1
 -27 669 -27 669 -54 646 c 128
 -81 623 -81 623 -107 606 c 1
 -167 606 l 1
 -167 617 l 1
 -148 637 -148 637 -124.5 663 c 128
 -101 689 -101 689 -79 716.5 c 128
 -57 744 -57 744 -44 766 c 1
 46 766 l 1
EndSplineSet
EndChar

StartChar: uni0306
Encoding: 774 774 38
Width: 0
Flags: H
AnchorPoint: "above" 1 536 mark 0
LayerCount: 2
Fore
SplineSet
156 740 m 1
 151 680 151 680 110.5 643 c 128
 70 606 70 606 -2 606 c 0
 -76 606 -76 606 -113.5 642.5 c 128
 -151 679 -151 679 -155 740 c 1
 -101 740 l 1
 -96 699 -96 699 -71 688 c 128
 -46 677 -46 677 0 677 c 0
 39 677 39 677 67.5 689 c 128
 96 701 96 701 101 740 c 1
 156 740 l 1
EndSplineSet
EndChar

StartChar: uni030C
Encoding: 780 780 39
Width: 0
Flags: HW
AnchorPoint: "above" 0 536 mark 0
LayerCount: 2
Fore
SplineSet
-46 606 m 1
 -59 629 -59 629 -81 655.5 c 128
 -103 682 -103 682 -127 708 c 128
 -151 734 -151 734 -169 753 c 1
 -169 766 l 1
 -109 766 l 1
 -83 749 -83 749 -55 725 c 128
 -27 701 -27 701 -2 674 c 1
 25 701 25 701 53 725 c 128
 81 749 81 749 107 766 c 1
 169 766 l 1
 169 753 l 1
 150 734 150 734 125.5 708 c 128
 101 682 101 682 78.5 655.5 c 128
 56 629 56 629 44 606 c 1
 -46 606 l 1
EndSplineSet
EndChar

StartChar: quotedblleft
Encoding: 8220 8220 40
Width: 359
Flags: HW
LayerCount: 2
Fore
SplineSet
347 714 m 1
 337.666666667 675.333333333 328.333333333 633.5 319 588.5 c 128
 309.666666667 543.5 302.333333333 503.666666667 297 469 c 1
 202 469 l 1
 195 480 l 1
 204.333333333 515.333333333 217 554.166666667 233 596.5 c 128
 249 638.833333333 265.333333333 678 282 714 c 1
 347 714 l 1
162 714 m 1
 152.666666667 675.333333333 143.333333333 633.5 134 588.5 c 128
 124.666666667 543.5 117.333333333 503.666666667 112 469 c 1
 18 469 l 1
 12 480 l 1
 21.3333333333 515.333333333 33.8333333333 554.166666667 49.5 596.5 c 128
 65.1666666667 638.833333333 81.3333333333 678 98 714 c 1
 162 714 l 1
EndSplineSet
EndChar

StartChar: quotedblright
Encoding: 8221 8221 41
Width: 359
Flags: HW
LayerCount: 2
Fore
SplineSet
340 714 m 1
 347 703 l 1
 338.333333333 667.666666667 325.833333333 628.666666667 309.5 586 c 128
 293.166666667 543.333333333 277 504.333333333 261 469 c 1
 195 469 l 1
 201.666666667 494.333333333 208.166666667 521.5 214.5 550.5 c 128
 220.833333333 579.5 226.833333333 608.166666667 232.5 636.5 c 128
 238.166666667 664.833333333 242.666666667 690.666666667 246 714 c 1
 340 714 l 1
155 714 m 1
 162 703 l 1
 153.333333333 667.666666667 140.833333333 628.666666667 124.5 586 c 128
 108.166666667 543.333333333 92 504.333333333 76 469 c 1
 12 469 l 1
 18.6666666667 494.333333333 25 521.5 31 550.5 c 128
 37 579.5 42.6666666667 608.166666667 48 636.5 c 128
 53.3333333333 664.833333333 57.6666666667 690.666666667 61 714 c 1
 155 714 l 1
EndSplineSet
EndChar

StartChar: uni211F
Encoding: 8479 8479 44
Width: 596
Flags: HW
LayerCount: 2
Fore
SplineSet
294 714 m 2
 325.333333333 714 354 712 380 708 c 1
 394 769 l 1
 174 821 l 1
 188 873 l 1
 459 805 l 1
 433 694 l 1
 513.666666667 666 554 605 554 511 c 0
 554 473 547 441.333333333 533 416 c 128
 519 390.666666667 501.166666667 370.5 479.5 355.5 c 128
 457.833333333 340.5 435 328.666666667 411 320 c 1
 607 0 l 1
 502 0 l 1
 336 284 l 1
 234 -145 l 1
 179 -145 l 1
 283 295 l 1
 187 295 l 1
 187 0 l 1
 97 0 l 1
 97 714 l 1
 294 714 l 2
289 636 m 2
 187 636 l 1
 187 371 l 1
 294 371 l 1
 294 371 294 371 295 371 c 128
 296 371 296 371 300 371 c 2
 361 630 l 1
 341 634 317 636 289 636 c 2
461 507 m 0
 461 555.666666667 445 590 413 610 c 1
 358 377 l 1
 393.333333333 384.333333333 419.333333333 398.833333333 436 420.5 c 128
 452.666666667 442.166666667 461 471 461 507 c 0
EndSplineSet
EndChar

StartChar: uni2123
Encoding: 8483 8483 45
Width: 606
Flags: HW
LayerCount: 2
Fore
SplineSet
351 764 m 1
 133 822 l 1
 149 873 l 1
 417 797 l 1
 265 228 l 1
 273 204.666666667 279.833333333 182.333333333 285.5 161 c 128
 291.166666667 139.666666667 296 119.333333333 300 100 c 1
 304.666666667 123.333333333 310.666666667 148 318 174 c 128
 325.333333333 200 334.333333333 228 345 258 c 2
 505 714 l 1
 600 714 l 1
 345 0 l 1
 255 0 l 1
 226 82 l 1
 165 -145 l 1
 110 -145 l 1
 194 171 l 1
 0 714 l 1
 94 714 l 1
 233 319 l 1
 351 764 l 1
EndSplineSet
EndChar

StartChar: u1BCA3
Encoding: 113827 113827 46
Width: 1128
Flags: HW
LayerCount: 2
Fore
SplineSet
975 593 m 1
 975 687 l 1
 880 687 l 1
 880 741 l 1
 1028 741 l 1
 1028 593 l 1
 975 593 l 1
689 687 m 1
 689 741 l 1
 822 741 l 1
 822 687 l 1
 689 687 l 1
498 687 m 1
 498 741 l 1
 631 741 l 1
 631 687 l 1
 498 687 l 1
307 687 m 1
 307 741 l 1
 439 741 l 1
 439 687 l 1
 307 687 l 1
100 593 m 1
 100 741 l 1
 248 741 l 1
 248 687 l 1
 154 687 l 1
 154 593 l 1
 100 593 l 1
543 -30 m 1
 543 453 l 1
 521 434 489 415 447 395 c 1
 447 430 l 1
 496 471 532 515 555 562 c 1
 573 562 l 1
 596 515 632 471 681 430 c 1
 681 395 l 1
 639 415 607 434 585 453 c 1
 585 -30 l 1
 543 -30 l 1
975 402 m 1
 975 534 l 1
 1028 534 l 1
 1028 402 l 1
 975 402 l 1
100 402 m 1
 100 534 l 1
 154 534 l 1
 154 402 l 1
 100 402 l 1
100 210 m 1
 100 343 l 1
 154 343 l 1
 154 210 l 1
 100 210 l 1
975 210 m 1
 975 343 l 1
 1028 343 l 1
 1028 210 l 1
 975 210 l 1
975 19 m 1
 975 151 l 1
 1028 151 l 1
 1028 19 l 1
 975 19 l 1
100 19 m 1
 100 151 l 1
 154 151 l 1
 154 19 l 1
 100 19 l 1
880 -187 m 1
 880 -134 l 1
 975 -134 l 1
 975 -39 l 1
 1028 -39 l 1
 1028 -187 l 1
 880 -187 l 1
100 -187 m 1
 100 -39 l 1
 154 -39 l 1
 154 -134 l 1
 248 -134 l 1
 248 -187 l 1
 100 -187 l 1
498 -187 m 1
 498 -134 l 1
 631 -134 l 1
 631 -187 l 1
 498 -187 l 1
689 -187 m 1
 689 -134 l 1
 822 -134 l 1
 822 -187 l 1
 689 -187 l 1
307 -187 m 1
 307 -134 l 1
 439 -134 l 1
 439 -187 l 1
 307 -187 l 1
EndSplineSet
EndChar

StartChar: u1BCA2
Encoding: 113826 113826 47
Width: 1128
Flags: HW
LayerCount: 2
Fore
SplineSet
975 593 m 1
 975 687 l 1
 880 687 l 1
 880 741 l 1
 1028 741 l 1
 1028 593 l 1
 975 593 l 1
689 687 m 1
 689 741 l 1
 822 741 l 1
 822 687 l 1
 689 687 l 1
498 687 m 1
 498 741 l 1
 631 741 l 1
 631 687 l 1
 498 687 l 1
307 687 m 1
 307 741 l 1
 439 741 l 1
 439 687 l 1
 307 687 l 1
100 593 m 1
 100 741 l 1
 248 741 l 1
 248 687 l 1
 154 687 l 1
 154 593 l 1
 100 593 l 1
555 -30 m 1
 532 17 496 61 447 102 c 1
 447 137 l 1
 489 117 521 98 543 79 c 1
 543 562 l 1
 585 562 l 1
 585 79 l 1
 607 98 639 117 681 137 c 1
 681 102 l 1
 632 61 596 17 573 -30 c 1
 555 -30 l 1
975 402 m 1
 975 534 l 1
 1028 534 l 1
 1028 402 l 1
 975 402 l 1
100 402 m 1
 100 534 l 1
 154 534 l 1
 154 402 l 1
 100 402 l 1
100 210 m 1
 100 343 l 1
 154 343 l 1
 154 210 l 1
 100 210 l 1
975 210 m 1
 975 343 l 1
 1028 343 l 1
 1028 210 l 1
 975 210 l 1
100 19 m 1
 100 151 l 1
 154 151 l 1
 154 19 l 1
 100 19 l 1
975 19 m 1
 975 151 l 1
 1028 151 l 1
 1028 19 l 1
 975 19 l 1
880 -187 m 1
 880 -134 l 1
 975 -134 l 1
 975 -39 l 1
 1028 -39 l 1
 1028 -187 l 1
 880 -187 l 1
100 -187 m 1
 100 -39 l 1
 154 -39 l 1
 154 -134 l 1
 248 -134 l 1
 248 -187 l 1
 100 -187 l 1
689 -187 m 1
 689 -134 l 1
 822 -134 l 1
 822 -187 l 1
 689 -187 l 1
498 -187 m 1
 498 -134 l 1
 631 -134 l 1
 631 -187 l 1
 498 -187 l 1
307 -187 m 1
 307 -134 l 1
 439 -134 l 1
 439 -187 l 1
 307 -187 l 1
EndSplineSet
EndChar

StartChar: u1BCA0
Encoding: 113824 113824 48
Width: 1128
Flags: HW
LayerCount: 2
Fore
SplineSet
975 593 m 1
 975 687 l 1
 880 687 l 1
 880 741 l 1
 1028 741 l 1
 1028 593 l 1
 975 593 l 1
689 687 m 1
 689 741 l 1
 822 741 l 1
 822 687 l 1
 689 687 l 1
498 687 m 1
 498 741 l 1
 631 741 l 1
 631 687 l 1
 498 687 l 1
307 687 m 1
 307 741 l 1
 439 741 l 1
 439 687 l 1
 307 687 l 1
100 593 m 1
 100 741 l 1
 248 741 l 1
 248 687 l 1
 154 687 l 1
 154 593 l 1
 100 593 l 1
975 402 m 1
 975 534 l 1
 1028 534 l 1
 1028 402 l 1
 975 402 l 1
100 402 m 1
 100 534 l 1
 154 534 l 1
 154 402 l 1
 100 402 l 1
539 160 m 1
 539 256 l 1
 309 256 l 1
 309 210 l 1
 270 210 l 1
 270 344 l 1
 309 344 l 1
 309 298 l 1
 539 298 l 1
 539 394 l 1
 578 394 l 1
 578 298 l 1
 767 298 l 1
 748 320 729 352 709 394 c 1
 744 394 l 1
 785 345 829 309 876 286 c 1
 876 268 l 1
 829 245 785 209 744 160 c 1
 709 160 l 1
 729 202 748 234 767 256 c 1
 578 256 l 1
 578 160 l 1
 539 160 l 1
100 210 m 1
 100 343 l 1
 154 343 l 1
 154 210 l 1
 100 210 l 1
975 210 m 1
 975 343 l 1
 1028 343 l 1
 1028 210 l 1
 975 210 l 1
975 19 m 1
 975 151 l 1
 1028 151 l 1
 1028 19 l 1
 975 19 l 1
100 19 m 1
 100 151 l 1
 154 151 l 1
 154 19 l 1
 100 19 l 1
880 -187 m 1
 880 -134 l 1
 975 -134 l 1
 975 -39 l 1
 1028 -39 l 1
 1028 -187 l 1
 880 -187 l 1
100 -187 m 1
 100 -39 l 1
 154 -39 l 1
 154 -134 l 1
 248 -134 l 1
 248 -187 l 1
 100 -187 l 1
498 -187 m 1
 498 -134 l 1
 631 -134 l 1
 631 -187 l 1
 498 -187 l 1
689 -187 m 1
 689 -134 l 1
 822 -134 l 1
 822 -187 l 1
 689 -187 l 1
307 -187 m 1
 307 -134 l 1
 439 -134 l 1
 439 -187 l 1
 307 -187 l 1
EndSplineSet
EndChar

StartChar: u1BCA1
Encoding: 113825 113825 49
Width: 1128
Flags: HW
LayerCount: 2
Fore
SplineSet
975 593 m 1
 975 687 l 1
 880 687 l 1
 880 741 l 1
 1028 741 l 1
 1028 593 l 1
 975 593 l 1
689 687 m 1
 689 741 l 1
 822 741 l 1
 822 687 l 1
 689 687 l 1
498 687 m 1
 498 741 l 1
 631 741 l 1
 631 687 l 1
 498 687 l 1
307 687 m 1
 307 741 l 1
 439 741 l 1
 439 687 l 1
 307 687 l 1
100 593 m 1
 100 741 l 1
 248 741 l 1
 248 687 l 1
 154 687 l 1
 154 593 l 1
 100 593 l 1
274 339 m 1
 274 453 l 1
 313 453 l 1
 313 417 l 1
 541 417 l 1
 541 562 l 1
 583 562 l 1
 583 417 l 1
 707 417 l 1
 707 375 l 1
 583 375 l 1
 583 108 l 1
 750 108 l 1
 731 130 712 162 692 204 c 1
 727 204 l 1
 768 155 812 119 859 96 c 1
 859 78 l 1
 812 55 768 19 727 -30 c 1
 692 -30 l 1
 712 12 731 44 750 66 c 1
 541 66 l 1
 541 375 l 1
 313 375 l 1
 313 339 l 1
 274 339 l 1
100 402 m 1
 100 534 l 1
 154 534 l 1
 154 402 l 1
 100 402 l 1
975 402 m 1
 975 534 l 1
 1028 534 l 1
 1028 402 l 1
 975 402 l 1
100 210 m 1
 100 343 l 1
 154 343 l 1
 154 210 l 1
 100 210 l 1
975 210 m 1
 975 343 l 1
 1028 343 l 1
 1028 210 l 1
 975 210 l 1
975 19 m 1
 975 151 l 1
 1028 151 l 1
 1028 19 l 1
 975 19 l 1
100 19 m 1
 100 151 l 1
 154 151 l 1
 154 19 l 1
 100 19 l 1
880 -187 m 1
 880 -134 l 1
 975 -134 l 1
 975 -39 l 1
 1028 -39 l 1
 1028 -187 l 1
 880 -187 l 1
100 -187 m 1
 100 -39 l 1
 154 -39 l 1
 154 -134 l 1
 248 -134 l 1
 248 -187 l 1
 100 -187 l 1
498 -187 m 1
 498 -134 l 1
 631 -134 l 1
 631 -187 l 1
 498 -187 l 1
689 -187 m 1
 689 -134 l 1
 822 -134 l 1
 822 -187 l 1
 689 -187 l 1
307 -187 m 1
 307 -134 l 1
 439 -134 l 1
 439 -187 l 1
 307 -187 l 1
EndSplineSet
EndChar
